<?xml version="1.0" encoding="utf-8"?>
<!-- Generator: Adobe Illustrator 18.1.1, SVG Export Plug-In . SVG Version: 6.00 Build 0)  -->
<svg version="1.1" id="Layer_1" xmlns="http://www.w3.org/2000/svg" xmlns:xlink="http://www.w3.org/1999/xlink" x="0px" y="0px"
	 viewBox="0 0 612 792" enable-background="new 0 0 612 792" xml:space="preserve">
<path fill="#EDC264" d="M585.1,139.9c16.2-14.6,26.6-36.1,26.6-59.6C612,35.8,575.9,0,531.7,0c-32.7,0-60.7,19.6-73.3,47.6h-305
	C141,19.6,112.8,0,80.3,0C35.8,0,0,35.8,0,80.3c0,23.5,10.4,45.1,26.6,59.6C10.4,154.5,0,176,0,199.5c0,44.5,35.8,80.3,80.3,80.3
	c32.7,0,60.7-19.6,73.3-47.6h305c12.6,28,40.6,47.6,73.3,47.6c44.2,0,80.3-35.8,80.3-80.3C612,176,601.6,154.5,585.1,139.9z"/>
</svg>
