<?xml version="1.0" encoding="UTF-8" standalone="no"?>
<!DOCTYPE svg PUBLIC "-//W3C//DTD SVG 1.1//EN" "http://www.w3.org/Graphics/SVG/1.1/DTD/svg11.dtd">
<svg width="100%" height="100%" viewBox="0 0 90 94" version="1.1" xmlns="http://www.w3.org/2000/svg" xmlns:xlink="http://www.w3.org/1999/xlink" xml:space="preserve" xmlns:serif="http://www.serif.com/" style="fill-rule:evenodd;clip-rule:evenodd;stroke-linecap:round;stroke-linejoin:round;stroke-miterlimit:1.5;">
    <g id="Artboard1" transform="matrix(1,0,0,1,-291.863,-175.193)">
        <rect x="291.863" y="175.193" width="89.335" height="93.333" style="fill:none;"/>
        <g transform="matrix(0.821265,0,0,0.821265,63.9762,42.2991)">
            <circle cx="327.954" cy="210.419" r="25.159" style="fill:none;stroke:white;stroke-width:9.71px;"/>
        </g>
        <g transform="matrix(0.930473,0.36636,-0.36636,0.930473,101.831,-118.556)">
            <path d="M356.408,230.355C356.408,230.355 374.8,238.371 383.928,242.35C385.226,242.916 386.231,243.995 386.703,245.329C387.176,246.664 387.074,248.135 386.421,249.392C386.143,249.926 385.858,250.474 385.574,251.021C384.741,252.623 383.294,253.818 381.564,254.333C379.834,254.847 377.969,254.637 376.397,253.751C367.417,248.687 351.524,239.726 351.524,239.726L356.408,230.355Z" style="fill:white;"/>
            <path d="M356.408,230.355C356.408,230.355 374.8,238.371 383.928,242.35C385.226,242.916 386.231,243.995 386.703,245.329C387.176,246.664 387.074,248.135 386.421,249.392C386.143,249.926 385.858,250.474 385.574,251.021C384.741,252.623 383.294,253.818 381.564,254.333C379.834,254.847 377.969,254.637 376.397,253.751C367.417,248.687 351.524,239.726 351.524,239.726L356.408,230.355ZM358.686,236.802L358.194,237.747L378.853,249.395C379.244,249.616 379.708,249.668 380.139,249.54C380.57,249.412 380.93,249.115 381.137,248.716C381.421,248.169 381.706,247.62 381.984,247.086C381.998,247.059 382,247.027 381.99,246.998C381.98,246.969 381.958,246.946 381.93,246.933L358.686,236.802Z" style="fill:white;"/>
        </g>
    </g>
</svg>
